<?xml version="1.0" encoding="UTF-8"?>
<svg version="1.1" viewBox="0 0 2048 1365" width="1280" height="1280" xmlns="http://www.w3.org/2000/svg">
<path transform="translate(0)" d="m0 0h2048v1365h-2048z" fill="#FCFCFC"/>
<path transform="translate(979,123)" d="m0 0h20l7 1 3 3 4 11 1 8-1 12-8 17-5 16-4 14-4 12-5 12-10 23-8 16-2 5-9 20-5 12-4 13-3 23-1 18v73l-4 31-6 27-12 38-1 5v12l3 9 9 13 7 11 3 8 3 4 1 5h2l8 16 7 18 4 17 1 8v31l-3 23-2 12-2 11-1 1-2 11-7 26-13 45-7 20-4 9-7 16-9 17-4 15-1 5v16l3 16 6 15 2 7 1 12-1 21-3 21-3 17-6 38-6 32-2 9-6 25-8 32-1 9 5 12 3 19 4 9v2h2l5 8 7 19 5 12 5 7-1 6-6 5-3 3h-7l-5 3-7 1v2l-9 1-6-2-5 2-10-2-8-6-1-3-3-1-2-8 3-17 5-19 1-7v-13l-6-18v-11l2-12 3-13v-31l-2-21-3-17-4-30-1-30-7 20-5 14-5 12-7 19-3 8-5 13-4 12-1 11 1 11 4 10-1 11-3 10v12l4 22v25l-3 17-2 10v15l-5 8-7 4h-9l-9-4-6-1-9-3-5-6v-2l-4-2-1-4-1-16 2-10 4-10 6-16 5-17 3-18 2-13 3-16 2-6 3-26v-34l-2-41v-19l3-23 6-25 8-27 4-13v-21l-4-15-3-10-16-32-10-19v-3h-2l-8-16-5-11-3-7-9-20-5-14-8-25-4-16-3-13-3 6h-2l-2 5h-2l-2 9-4 10-1 5 5 5 4 5 4 3 2 8-2 1-12-1h-3l1 2v8l-4-1-9-9-9-7-1-1-1-19-2-8v-9l1-3h2l1-5 5-7 10-21 2-7v-27l-1-37v-24l2-16 4-20 4-15 3-8 3-9 4-10 4-11 3-19v-61l-2-13-2-2-4-2-2-4-8-9-4-8v-3h-2l1-14 2-4 1 3 5-12 1-4v-15l-5-10-4-6-3-10v-12l5-14 2-6 4-10v-8l-4-11-2-7-5-14-1-4v-17l3-10 7-8 10-6h2l1-11 4-11 7-10 10-7 1-3 11-4 3-1h12l4 1v-5l4-2 5 5 3 9 8 5v-9l3-6 2-1 9-1 6-2h5l1-1h5l6 7 1 9 4 1 7 4 9 10h8l10-2 17-5 11-5 25-9 22-6 12-2z" fill="#FBCDBE"/>
<path transform="translate(297,134)" d="m0 0h9l12 3 12 7 9 8 5 6 1 3 8-1 19 4 6 3 6 7 6 9 3 8 4 15 1 4h2l1 4 4 1 16 15 3 15 1 17-6 9-3 5 3 10 1 7 10-4 8-3h8l13 6 7 4 5 12 5 13 10 23 2 10v12l-1 11 1 16 5 25 3 16 1 9-1 27-4 14-8 16-6 9-7 3h-14l-7-3-5-4-12 48-3 22v13l2 14 9 36 1 5v10l-15 8-20 9-20 10-24 14-18 11-11 7-2 1h-12l-11-9-15-10-21-13-19-10-18-7-24-6 2-14 1-9-5-6-4-9-13-12-14-13-8-7-12-11-17-17-14-16-10-15-4-8 1-8 9-14h2l2-5 3-3h2l2-4 2-3h2l2-4 1-3h2l2-5 11-13 8-9 6-4 6-7 8-7 7-7 3-4h2l1-4 8-10 7-10h2l2-4 8-9 10-7 8-4 11-4 6-2 28-2 23-5 9-5 3-8-13-2-8-3h-9l-6 3-3 3-12 6h-10l-5-3-3-3-7-1-2-1-4-1-10-2-6-5-4-4-1-10h2l-1-7v-11l-4-8-4-2-10-10-2-5-2-3-1-5v-14l3-12 9-16 9-10 5-5 6-5 2-5 3-3 3-8 2-11 1-7 6-12 8-11 5-3 8-6 14-8z" fill="#F8CBBC"/>
<path transform="translate(1270,132)" d="m0 0h8l-1 2 6 1 4-1 11 5 2 1h26l13 4 8 5 5 4 6 10 2 7 1 15-1 11-3-2 1 1 1 4 2-2 1 6 4 2 5 4 6 10 3 7-1 13-5 10-15 15-4 5-2 4v13l5 5 2 1h7l6-4 4-5 1 5-5 12-8 7-8 4-7 2h-27l-11-2 4 11 8 7 11 6 11 3 15-1 9-2h11l11 6 4 3v2l4 2 5 4v2l5 2 13 12 2 1v2l4 2 14 12 12 10v2l4 2 10 8 15 13 12 11 11 9 9 10 5 10 1 3v10l-8 17-12 18-9 11-5 5h-2l-2 4-7 7-8 7-6 5h-2l-1 3-9 7h-3v2l-17 12-14 10-8 9-4 2h-10l-16-4-5 4v23l-12 5-16 8-11 7-13 11-18 18-6 7 13-6 7-2v2l-15 6-10 7h-2l-2 4-9 12-7 43-5 43-4 53-2 54-2 1v-33l2-40 4-46 5-39 6-34-1-5-8-13-15-11-8-5 2-1 15 9h1l-10-15-10-13-11-13-10-10-14-10-11-4-5-2 1-13-3 2h-11l-6-4-8-9-10-7-12-8-7-5v-2l-4-1-14-11v-2l-4-2-10-9-14-14-9-11-11-17-7-14-1-8 2-11 7-11 5-4 12-12 10-8h2l2-4 4-3h2l2-4 5-3 5-5h2l2-4 11-9 13-11h2l2-4 11-9 12-11 11-9 12-9 6-2h10l15 3h15l12-7 5-5 2-7v-6l-20 4h-15l-13-3-8-4-7-8h3l5 1 3-2 5 1 4-8v-6l-1-2-2 4-2-9-3-4h3l3 4-2-5-5-8-2 2-3-3-2-4-4-7-2-4-2 3-1-10 2-5 3-10 5-7v-13l2-3 1 10 1-7-5-15v-10l4-9 6-8 12-9v-2h14l2-5 7-9 8-6 4-2h3l1-2z" fill="#F9CCBD"/>
<path transform="translate(1779,167)" d="m0 0h19v1l-9 1 14 3 17 8 5 5 6 12 3 9 23-1h27l19 3 9 3 11 6 4 5 2 8v11l-3 15-3 16-3 12-3 17-8 37-8 24-5 12-3 9-4 24-2 13-3 25-6 29-6 20-12 30-15 36-7 19-3 14-2 21v15l1 20v33l-14 4-46 9-16 6-16 9-19 14-7 6-4 7h-2l-10-25-11-21-9-12-9-10-11-10-17-12-20-12 1-5 8-14 10-14 9-11 12-13 11-10 14-11 12-11 7-10 3-7 1-5v-9l-4-29-3-32-2-17-3-11-7-16-8-11-4-7-4-5-4-7-6-10-8-17-10-30-8-30-5-16-9-26-5-11-4-10-1-8v-8l8-4 14-4 16-2h27l32 4h3l1-2 1-11 2-3v13l7-19 5-7 2-1-1-2 10-4 13-2 10 2 4-3z" fill="#FACCBE"/>
<path transform="translate(1192,603)" d="m0 0 11 3 8 4 13 10 13 13 11 14 11 15 6 9-1 2-10-7-6-3 12 8 10 8 8 14-2 13-6 38-5 45-3 43-1 23v32l2-54 4-53 5-43 7-43 10-13 5-5 11-7 10-4h3-4l-12 5-5 2 6-8 23-23 13-10 18-10 13-5 4 1 1 16v44l-3 30-3 25-5 25-3 16-4 14-3 10-6 13-8 21-4 10-5 13-8 23-3 9-3 10-1 5 4 19 9 29 5 13 7 21 5 19 1 5v20l-1 16v33l4 27 4 18 1 3 3 3v10l-2 7v16l2 12 2 9 6 11 1 4v11l-4 12-1 15-5 6-10 3h-9l-2-2h-17l-5-3-6-2-4-3-4-9-2-3v-9l4-8 5-11 2-14 9-27 2-12v-25l-2-12-5-12-4-10-6-14-5-17-5-18-12 36-5 12-7 17-8 17-4 10-1 6 5 11v12l-2 6v13l2 7 8 15 3 10 2 19 5 17v9l-4 7h-2l-1 6-4 3h-5l-5 3-8-1-2 2h-11l-2 1h-12l-6-4-4-9 1-9v-10l-5-7v-9l5-25 2-14 6-16v-6l-3-7v-8l7-20 2-12v-61l1-16 3-24 5-27 9-32 3-7 10-30 2-11-1-11-3-9-8-16-14-29-7-18-5-10-2-5-10-28-7-24-6-29-4-26-2-19-1-22v-38z" fill="#FBCDBE"/>
<path transform="translate(1623,635)" d="m0 0 14 7 16 11 10 8 12 11 8 9 10 15 12 25 5 14v2h2l2-5 5-6 20-15 17-10 15-6 22-5 27-5 11-2 1 5-1 14-3 17-7 24-10 24-10 21-8 15-9 16-10 16-1 2h-2l-1 4-12 21-7 13-5 15-1 6v18l5 11 5 9 7 14 4 13 1 9v35l-2 108 1 5 8 11 1 3v9l-1 7 2 10 7 13 4 6v3h2l7 12 4 6v3h2l8 16 2 11 1 3v9l-1 5v6l-2 9-4 1v6l-6 2-5-1-4 4-9-1-9-6-6-5v2l-11 7-5 3h-7l-4-2-11 1-3-1-1 1h-5l-3-3-7-2-5-1-1-2v-9l4-7 11-10 5-5 3-5v-9l-4-8v-28l-3-18-7-23-7-17-3-7-10-21-4-10-7-19-4-17-2-10-2-14-1-20-1-73-3-17-3-12-14-41-6-17-6-16-9-25-10-29-7-22-6-23-2-16v-16l2-19 5-21 5-13 4-9z" fill="#FCCEBF"/>
<path transform="translate(1870,367)" d="m0 0 1 3-2 8-1 16 10 18 6 16 1 4-1 13-6 29-6 20-12 30-15 36-7 19-3 14-2 21v15l1 20v33l-14 4-46 9-16 6-16 9-19 14-7 6-4 7h-2l-10-25-11-21-9-12-9-10-11-10-17-12-20-12 1-5 8-14 10-14 9-11 12-13 11-10 14-11 12-11 7-10 3-7 1-5v-9l-4-29-3-32-1-6v-9l6-15 7-19 3-5-1-11-5-14-1-4 3 3 5 12 2 10 10-13 8 1 15 8 14 12 11 13 8 13 4 7 2-3 5-14 2-15 4-12 6-9 4-4 3 1-4 4h-2l-2 4-5 11-3 15v2l9-13 14-14 22-15 4-4h2l5 10 7 9 2-14z"/>
<path transform="translate(444,389)" d="m0 0h1l-1 11-4 20-2 9-3 31 1 1 1-7 1 4-1 4v20l4 10 3 7v8l-6 26-5 20-3 22v13l2 14 9 36 1 5v10l-15 8-20 9-20 10-24 14-18 11-11 7-2 1h-12l-11-9-15-10-21-13-19-10-18-7-24-6 2-14 2-7 14 7 13 3 13 1 4-4 3 1h8v-4h3 4l-1-6-1-4 5-2 1-3-5-6-11-9-15-13-8-7 1-6 9-17 9-12 6-13 4-14 2-15v-42l-3-16-2-7v-7l4-2 11-9 13-8 11-5 16-4 21-3 11-1h45l17 3 20 7 5-26z"/>
<path transform="translate(439,654)" d="m0 0 2 1v67l-1 26-4 38-5 30-5 24-2 6-3 12-4 21-1 11 1 9 5 17 15 24v3h2l9 16 9 17 6 17 3 19 1 14v44l-4 33-7 43v11l2 9 1 8 1 7 7 11 4 9v14l-3 6-8 7-6 8-1 3-1 22-1 8-5 8-6 4h-3v2h-3l-2 4-7 8-6 1-5-2-3 2h-6l-4-2h-6l-5-2-9 1-3-3-9-1-5-2-3-4 1-6 7-6 9-4 3-3 3-8 2-9 5-12 8-16 6-19 5-15 7-14 2-8v-16l-3-25-7-30-2-11-4-16-3-9-3-12-6-22-13-43-12-37-8-16-6-9-6-18-2-9-1-18-3-25-2-9-1-10-5-42-1-21v-28l2-20 1-6 16-10 18-11 16-9 23-12 30-14z" fill="#FBCEBF"/>
<path transform="translate(924,363)" d="m0 0 3 1 10 15 8 14v39l-4 31-6 27-12 38-1 5v12l3 9 9 13 7 11 1 5-5 6-8 7-14 15-9 11-14 18-26 36-14 19-9 11-3 4 2 11 6 29 4 30 2 23 2 38 3 17 6 24v16l-4 11-4 8-1 49-1 17-3 17-4 11-2-1 5-21 1-7 1-21v-37l-3 10h-2l2-10 11-23 1-4v-14l-4-17-4-16-2-25-2-33-4-35-6-33-4-15-9-14-11-15-11-14-9-11-12-14-9-11-14-15-7-8-15-16h-4v-3l3-1 1-5 8-16 9-15 7-9 14-14 7-10 1-2v-25l-3-20-4-16-4-8 3-9 4-15 3-23h41l18 3 16 6 8 4-5-10-3-5 3 1 6 9 1 5 8-7 16-13 13-10 11-10z"/>
<path transform="translate(212,658)" d="m0 0 17 3 18 6 19 9 22 13 21 14 11 9 2 10 1 9-2 71-2 22-3 18-13 77-1 9v18l5 26 3 13 2 12 3 22 3 24 1 12v42l-3 25-3 16v14l6 17 2 23 3 16 5 19 1 5 1 20 1 7 4 7 3 3 3 4 1 7-2 5-4 5-5 2h-7l-7-1-4 2-8-1h-4l-4 2h-6l-5-1-6-1-8-5-2-4v-5l3-8 2-7v-24l4-26 1-7v-13l-1-8v-16l1-6v-24l-5-19-7-18-8-16-10-21-11-33-4-23-2-15v-38l3-24 6-28 2-13 1-21-4-27-2-5-1-7-3-9-13-46-9-36-3-16-2-20v-21l2-19z" fill="#FBCEBF"/>
<path transform="translate(1337,405)" d="m0 0 16 8 16 5 5 12 3 8 1 5v11l-4 15-7 13-2 2v13l4 48v9l-9-1-9 3-9 7-11 11-10 13v1h7l10-5 6-5-2 4-8 11-2 5-1 9 4-2 4-4-2 6 8-2 6-4 9-10v3l-7 8h7l8-6h2l1-3h2l1 11v11l-12 5-16 8-11 7-13 11-18 18-6 7 13-6 7-2v2l-15 6-10 7h-2l-2 4-9 12-7 43-5 43-4 53-2 54-2 1v-33l2-40 4-46 5-39 6-34-1-5-8-13-15-11-8-5 2-1 15 9h1l-10-15-10-13-11-13-10-10-14-10-11-4-5-2 1-13 12-3 10 8 6 5 4 2h6l-8-9 1-2 11 12 6 3 6 1-2-6 6 5 2 1-1-9-4-8-7-9 1-2 7 6 7 3h7l-4-7-14-15-10-9-6-3-7-1-22 5h-2l1-12 7-39 3-15v-7l-7-10-4-9-2-9v-16l5-16 1-6 6-1 11-6 6-4 14 9 26 12 11 8 8 9 2 3 9-12 9-8 17-10 10-7z"/>
<path transform="translate(297,134)" d="m0 0h9l12 3 12 7 9 8 5 6 1 3 8-1 19 4 6 3 6 7 6 9 3 8 4 15 1 4h2l1 4 4 1 16 15 3 15 1 17-6 9-5 7 1 7 2 4v8l-2 7-5 6-2 8-5 4-13 6-10 2h-9l-9-11-7-12-2-8 7-16 1-10-3-9-5-2-2-5 2-1 2 2-4-12-5-37-6-16-13-1-5 5-6 9-3 4h-2l-8 7-13 8-1 3-4 3-3 3h-2l-2 5-1 9 2 5 3 22 12 24 7 9 9 8 6 4 7 21v6l-13-2-8-3h-9l-6 3-3 3-12 6h-10l-5-3-3-3-7-1-2-1-4-1-10-2-6-5-4-4-1-10h2l-1-7v-11l-4-8-4-2-10-10-2-5-2-3-1-5v-14l3-12 9-16 9-10 5-5 6-5 2-5 3-3 3-8 2-11 1-7 6-12 8-11 5-3 8-6 14-8z"/>
<path transform="translate(759,134)" d="m0 0 13 1 2 1 2 10 6 4 10 5 1 2-4 4-1 4 13 2 12 8 9 5 10 3h7l6-2 2-2 6 2 11 2 5 3 8 16 3 21 1 15 4 8 6 5 4 2-1 9 1 3v8h-2l-1 5-1 9-2 12-2 3h-2l-3 2-11-1-6 7-3 4-1 6h-2l1-7 7-10-2-4-1-4-6-2-6-4 1-2 2 1-3-10-2-1-1 5-1-2-16 5-6 1h-14l-13-5-11-7 2-1 10 6 11 4h16l16-4 6-5 1-5h-1v-11l2-15-2-9-4-7-11-4-9-2 1-2-11-6-4-7-9-10-6-7-10-7-6-3-17-2-6 2-5 3-4 8-2 7-1 3v10l4 9 1 6 10 15 2 11-6 3-2 4v6l5 5 14 4 11 1 10 9 12 18 4 10-1 4h-1l-3-10-3-6-3 10-4 5 4 11v5l25-2h19l3 1-1 2-5-1h-12l-11 1h-18l-1 7-5 8-8 4-12 3-3 3-3 16-4 8-6 5-6 2-9-1-5-1-9 6h-6l2 13-7-2-1-4-7-7-5-9-1-5h-2l1-14 2-4 1 3 5-12 1-4v-15l-5-10-4-6-3-10v-12l5-14 2-6 4-10v-8l-4-11-2-7-5-14-1-4v-17l3-10 7-8 10-6h2l1-11 4-11 7-10 10-7 11-4z"/>
<path transform="translate(1270,132)" d="m0 0h8l-1 2 6 1 4-1 11 5 2 1h26l13 4 8 5 5 4 6 10 2 7 1 15-1 11-3-2 1 1 1 4 2-2 1 6 4 2 5 4 6 10 3 7-1 13-5 10-15 15-4 5-2 4v13l5 5 2 1h7l6-4 4-5 1 5-5 12-8 7-8 4-7 2h-27l-12-3-2-14v-10l4-8 6-7 1-8-1-4-4-2 2-13 4-8v-7l-6-8-4-13-2 3-6 1 1-2h2l1-3v-7l-3-5v-2l-4-2-5-2h-6l-3-1-8-5-3-4-3 12-6 9 1 2-5 5-3-2-2 2 1 2-5 5-4 8-1 3v10l2 10 3 4h1l1 10-4 10 2 5 7 8 3 4 1 26-9 3-12 2h-15l-13-3-8-4-7-8h3l5 1 3-2 5 1 4-8v-6l-1-2-2 4-2-9-3-4h3l3 4-2-5-5-8-2 2-3-3-2-4-4-7-2-4-2 3-1-10 2-5 3-10 5-7v-13l2-3 1 10 1-7-5-15v-10l4-9 6-8 12-9v-2h14l2-5 7-9 8-6 4-2h3l1-2z"/>
<path transform="translate(1779,167)" d="m0 0h19v1l-9 1 14 3 17 8 5 5 6 12 6 18 6 7 11 6 8 7 2 6-1 9h-1l-1-12-1-1v12l-4 13 3-4-1 5-1 3v11l1 4-3-3-1-4 1 6 1 4 4 2 5 2 3 9-1 9-8 16-8 15-5 17-3 1-13-3-8-6-8-13-5-12-5-21v-4l-2-1 8-9 1-9 1-4v-26l-1 5h-1v-16l-4-8-2-3 4 2 2 2-4-6-12-6-5-7-3-6-5-4-3 1-7 3-2 1v-3l-16-2-6 4-6 14-4 4-1 4-4 4v11l2 12 1 11v4l3 8 4 4-1 2 1 4 1 1 1-5-5-9 1-2 5 8 4 16 12 8v25l-3 17-3 6-3 2-10-7-16-7-19-8-1-1v-16l-4-9-3-5v-7l6-13-1-8-9-14-2-6v-10l4-11 9-10 8-7 3-8 1-11 2-3v13l7-19 5-7 2-1-1-2 10-4 13-2 10 2 4-3z" fill="#010000"/>
<path transform="translate(252,440)" d="m0 0h10l6 4 5 16 2 12v42l-3 19-5 15-6 11-9 12-10 19h-13l-5 2-4-1-23-23v-2l-3-1-14-19-11-17-6-11 7-8 12-13 13-12 11-10 14-11 22-18z" fill="#FDFCFC"/>
<path transform="translate(1368,414)" d="m0 0 7 2 10 4 18 6 17 10 19 13 2 1v2h3v2l5 2 4 2v2l5 2 6 3-1 5-8 13-4 8-3 7-10 24-8 16-10 13-10 7-6 2h-10l-22-5-2-1-2-9-4-48v-13l6-9 5-12 2-9v-11l-3-11-4-8-1-5-2-1z" fill="#FDFCFC"/>
<path transform="translate(1199,420)" d="m0 0 4 1-3 9-3 11v16l3 12 6 11 4 5v7l-8 42-3 19-3 6-5 1h-12l-10-5-7-6-7-10-11-21-9-22-8-17-2-5h-2l-4-8 10-6h2v-2l9-5 8-6h2v-2l7-4 18-12 9-4z" fill="#FDFCFC"/>
<path transform="translate(870,183)" d="m0 0h75l3 2-8 13-7 14-7 10-8 7-11 9-8 10-3 5-5-1-8-7-3-7-1-15-3-21-6-13h2l6 10 3-3-2-1-2-5h-2z" fill="#FDFCFC"/>
<path transform="translate(769,434)" d="m0 0 2 3 9 21 5 24 1 9v25l-6 9-9 10-10 10-3 4-2-1 2-21 1-27 7-31z" fill="#FDFBFB"/>
<path transform="translate(1664,235)" d="m0 0 18 1h12v16l4 10 7 10 1 8-6 13v7l6 11 1 3v10l-2 5-6-4-6-7v-2h-2l-6-16-3-13-4-17-6-18-6-12-3-3z" fill="#FDFBFB"/>
<path transform="translate(1859,235)" d="m0 0 3 3 1 8 1-8 18 3 5 2-2 6-7 19-5 21-4 13h-1l-3-12-2-2-4-2-4-4-2-5v-7l2 4 1 3v-11l1-4-2 3 1-6 3-10z" fill="#FDFBFB"/>
<path transform="translate(1709,740)" d="m0 0h2l-7 59-4 20-8 22-8 21-4 18v26l4 18 6 15-1 3h-2l-3 13v22l3 18 7 24 10 25 11 21 8 14 7 15 4 16v15l-2 10v13l8 37 5 13 1 4-3-3-5-12-9-39v-12l2-11v-17l-4-14-9-19-11-19-12-25-9-27-4-19-1-7v-21l3-14 1-8-4-10-4-18v-28l4-18 13-34 5-17 4-25 4-34z"/>
<path transform="translate(419,298)" d="m0 0 4 1-1 6h-2l-1 11-2 3h9l2-1v2l4 2 5 6v5l-17 1-24 3h-9l-12-3-2-3 20-5 13-7 2-3 2-8 7-7z" fill="#FDFBFB"/>
<path transform="translate(291,131)" d="m0 0h20l5 2-4 1-7-1h-9l-11 2 1 2-7 3-14 8-8 6-5 5-8 13-3 8-1 10-3 11-2 4h-4l1-11 3-13 8-15 10-13 11-10 10-6 9-4z" fill="#B69C94"/>
<path transform="translate(1222,157)" d="m0 0h4v2l2 1-9 5-7 6-5 8-2 6v10l5 15-1 7-2 2-1-9h-2l-6-12-1-10 1-8 6-10 3-2h2l1-4 7-5z" fill="#DFD5D1"/>
<path transform="translate(216,298)" d="m0 0 3 1 3 7v18l-1 5 2 3 4 7 7 4 8 1 4 4-5 1h-9l-5-3-5-5-4-6-1-3v-13l1-5v-7z" fill="#B3A29C"/>
<path transform="translate(699,305)" d="m0 0 2 4 4 9 6 10 1 3v15l-5 14-3 3v-8l3-14-1-11-7-12-2-4v-6h2z" fill="#CDC1BD"/>
<path transform="translate(1375,250)" d="m0 0v3l-12 11h-2l-2 4-2 2v12l5 5h6l6-5 2 1-2 5-5 4-2 1h-7l-6-4-2-3v-13l4-7h2l2-5 6-5 4-1z" fill="#C8B9B4"/>
<path transform="translate(733,591)" d="m0 0 1 2-5 10-5 16-4 21-1 10v36l3 15-2 1-3-10-1-7v-36l4-26 5-17 7-14z"/>
<path transform="translate(787,1249)" d="m0 0 2 1-1 9h8l3 2 1 7-2 3-13-1-3 1-2 4-1-4 4-8 3-5z"/>
<path transform="translate(376,164)" d="m0 0 4 1 6 4 5 5v2h2l5 12 2 16 1 5-2-1-3-13-2-3 1-3 1-2-4 1-8-13-7-6z" fill="#AB9A94"/>
<path transform="translate(1330,140)" d="m0 0 9 1 11 6 3 2v2h2l2 5h2l4 10v14l-1 2h-2l-2-17-5-9-5-5-5-4-10-4-3-1z" fill="#BFB0AC"/>
<path transform="translate(870,1249)" d="m0 0 2 4 4 7 3 5-1 5-1-4-6 2h-6l-5-6 1-4 8-3z"/>
<path transform="translate(1197,247)" d="m0 0h1l3 9 4 7 2 4 2 1h3l5 8 2 3-1 3-3-3v-2l-5-1-8-7-4-5-1-4z" fill="#AE9D97"/>
<path transform="translate(239,178)" d="m0 0 2 2-1 10-3 11-2 4h-4l1-11 3-13z" fill="#C1ADA6"/>
<path transform="translate(787,182)" d="m0 0 6 4 9 8 9 11 4 6-5-2-12-12v-2l-3 1-6-7v-2l-4-2z" fill="#AE8E84"/>
<path transform="translate(1750,1248)" d="m0 0 2 1-5 5-2 1 7 3-1 5-3 2-11-2-1 4-1-4 3-6 11-7z"/>
<path transform="translate(1731,177)" d="m0 0 4 1-5 5-5 10-4 12-2 2v-10l2-10 7-8z" fill="#E9DDDA"/>
<path transform="translate(216,298)" d="m0 0 3 1 3 7v18l-1 5 1 2-2 4-3-3v-13l1-5v-7z" fill="#C8B2AA"/>
<path transform="translate(739,138)" d="m0 0 2 1-10 10-6 9-2 5h-2l-2 12h-1v-12l4-10 13-13z" fill="#C1B0AB"/>
<path transform="translate(312,208)" d="m0 0 1 2-1 3-3 2-3 7-14 6-2-1 2-4 9-6 9-7z" fill="#B59489"/>
<path transform="translate(816,125)" d="m0 0m-4 0 4 1 6 11 4 8-4-2-6-5-7-8-2-3z" fill="#FDCFC0"/>
<path transform="translate(1342,1225)" d="m0 0 9 1 2 4-2 4h-14l2-6z" fill="#FDCFC0"/>
<path transform="translate(1234,1243)" d="m0 0 2 1 6 13-1 9-2 1v-11l-2-4h-9l-2 1v6l1 4 8-3 4 1-8 3-4 1-4-6v-6l3-3 9-1z"/>
<path transform="translate(1780,168)" d="m0 0h22l9 4 8 5 1 4-17-8-14-3-9-1z" fill="#A39591"/>
<path transform="translate(1747,1204)" d="m0 0 2 1 7 31 4 9 8 11v2h-2l-9-12-4-10-5-23z"/>
<path transform="translate(1197,190)" d="m0 0h2l1 7 6 1 4 12-1 7-2 2-1-9h-2l-6-12z" fill="#C3AFA9"/>
<path transform="translate(816,127)" d="m0 0 5 5 5 8 5 1-4 2 2 6-4 1-12-3-10-6-3-3 6 2 11 6 7 1v-4l-7-13z" fill="#0A0807"/>
<path transform="translate(787,1261)" d="m0 0h10l1 2v6l-15-1 2-5z" fill="#FDCFC0"/>
<path transform="translate(1220,158)" d="m0 0 3 1-1 2h-3l-1 3-8 7-4 5-3 6-1-3v-3-3l5-5h2l1-4 7-5z" fill="#BBA49D"/>
<path transform="translate(1341,1213)" d="m0 0h2l1 9-1 2 9 1 2 2-1 7-2 2h-14v3h-2v-7l6-10zm1 12-4 5-1 4h14l2-5-2-3z"/>
<path transform="translate(1341,350)" d="m0 0 2 1-7 6-10 4-5 1-16 1-12 3-5 2 4-4 9-3 22-2 11-4z"/>
<path transform="translate(1812,243)" d="m0 0h1v30l-2 2-2-6v-11z" fill="#FDCFC0"/>
<path transform="translate(1204,218)" d="m0 0h2v5l-6 9-3 12-3 4v-10l3-8z" fill="#D0BEB9"/>
<path transform="translate(881,200)" d="m0 0 2 1 1 3v18l-2 2v5l-3 1v-7l1-5-1-16 2 2v-1z" fill="#A38F88"/>
<path transform="translate(317,134)" d="m0 0 6 1 9 6v2h2v2h2v2h2l4 8-3-1-6-7-14-9z" fill="#BFACA6"/>
<path transform="translate(868,1257)" d="m0 0 5 1 3 6-5 2h-5l-4-5 1-2z" fill="#FDCFC0"/>
<path transform="translate(702,381)" d="m0 0 3 1 5 9 8 8v2l-5-1-5-5-4-5-2-4z" fill="#BBACA7"/>
<path transform="translate(1799,309)" d="m0 0h1l1 13v27l-2 10-2 2 1-11 1-21z"/>
<path transform="translate(870,189)" d="m0 0h2l6 10 4-1 1 16-2-4-1-3 1 14-2-1-3-18z" fill="#FDEBE5"/>
<path transform="translate(695,208)" d="m0 0h1l1 9 2 2 4 13 3 9h-2l-6-11-3-8z" fill="#C9B3AC"/>
<path transform="translate(296,132)" d="m0 0h9l11 2 3 2-1 2-12-3h-9l-14 1 2-2z" fill="#FDEEE9"/>
<path transform="translate(1734,266)" d="m0 0 5 3 3 7 3 6-1 7-3-3-2-6h2l-5-5z" fill="#E1B8AB"/>
<path transform="translate(291,131)" d="m0 0h20l5 2-4 1-7-1h-9l-11 2 1 2-6 1-4-2 10-4z" fill="#B19289"/>
<path transform="translate(1379,226)" d="m0 0h2l2 6-1 10-3 6-2-1 1-8z" fill="#C8B0A8"/>
<path transform="translate(394,187)" d="m0 0h2l-1 5 2 3 3 13h2l1 5-3-1v-2h-2l-4-11-2-11z" fill="#FDEEEA"/>
<path transform="translate(1222,157)" d="m0 0h4v2l2 1-9 5-7 6-5 8-2-1 2-5 9-9 2-1v-3l3-1z" fill="#FDF5F2"/>
<path transform="translate(1753,199)" d="m0 0 3 1-5 3-8 15-7 6 2-4 4-6 4-10 5-4z" fill="#FDCFC0"/>
<path transform="translate(1859,235)" d="m0 0 3 3v15l-2 5h-2l-2 7-1-4 4-12z" fill="#FDE4DC"/>
<path transform="translate(1375,250)" d="m0 0v3l-12 11h-2l-2 4-3 2 2-6 4-5 4-3 4-1z" fill="#8D7F7B"/>
<path transform="translate(230,344)" d="m0 0h12l4 4-5 1h-9l-3-1z" fill="#A78A80"/>
<path transform="translate(977,167)" d="m0 0 1 2-5 5-10 5-14 6 1-3 22-10z"/>
<path transform="translate(696,734)" d="m0 0 5 2 1 3-4 4-5-1 1-6z" fill="#FDCFC0"/>
<path transform="translate(1741,1257)" d="m0 0h8l2 4-3 2-6-1-4-2z" fill="#FDCFC0"/>
<path transform="translate(871,185)" d="m0 0 4 3v2h2l1 4 2 1 1 4-3 2-5-9-1-3h-3v-2h2z" fill="#A18C85"/>
<path transform="translate(757,131)" d="m0 0h12l-2 2-11 1-7 3-7 1 3-3z" fill="#E5BEB1"/>
<path transform="translate(293,341)" d="m0 0h9l6 2v2l-12-1-9 2v-2z" fill="#CBA89C"/>
<path transform="translate(1359,165)" d="m0 0 4 1v14l-1 2h-2z" fill="#C6B5AF"/>
<path transform="translate(428,244)" d="m0 0h1v9l-3 7h-2v-11l1-2h2z" fill="#AD938A"/>
<path transform="translate(355,159)" d="m0 0 16 2 4 2v1h-7l-15-3z" fill="#D2B0A5"/>
<path transform="translate(704,275)" d="m0 0h2l-6 18h-2l-1 3v-6l4-9z" fill="#9F857D"/>
<path transform="translate(748,221)" d="m0 0 5 5 5 7h2l1 4-3 2-10-16z" fill="#FDCFC0"/>
<path transform="translate(776,1245)" d="m0 0 2 1-2 12-5 11h-2l1-6 4-7z"/>
<path transform="translate(414,276)" d="m0 0h2l2 12v9h-1l-2-10-2-4z" fill="#DACDC9"/>
<path transform="translate(1853,270)" d="m0 0 2 4 2 6 6 5v3l-4-2-4-4-2-5z" fill="#C2ABA4"/>
<path transform="translate(1330,140)" d="m0 0 9 1 8 4-4 2-10-4-3-1z" fill="#AE9790"/>
<path transform="translate(850,276)" d="m0 0 3 2 3 12-5-4-2-4v-5z" fill="#FDCFC0"/>
<path transform="translate(1269,887)" d="m0 0 2 2 4 13 2 5h-3l-4-10z"/>
<path transform="translate(244,165)" d="m0 0 1 2-2 3 1 2-3 7-4 1 1-5z" fill="#A49692"/>
<path transform="translate(381,170)" d="m0 0 4 2 7 11 2 5-3-1-6-11-4-4z" fill="#B7968B"/>
<path transform="translate(1261,133)" d="m0 0h3v2l-12 6-5 5-2-1 8-8z" fill="#C4A094"/>
<path transform="translate(1220,288)" d="m0 0h1l-1 9-4 5-4 1 3-5 2-7 2 2z" fill="#C2AEA8"/>
<path transform="translate(387,902)" d="m0 0h2l-2 13-2 6h-1v-7z"/>
<path transform="translate(1300,891)" d="m0 0h2l-2 9-4 8h-2l3-9z"/>
<path transform="translate(1376,244)" d="m0 0h2l-1 6-8 7-2-2 8-9z" fill="#EED9D2"/>
<path transform="translate(420,231)" d="m0 0h3v2h2l3 5-1 4-3-3v-2h-2z" fill="#BDABA6"/>
<path transform="translate(807,128)" d="m0 0 7 6 4 5 6 5h-3l-8-7-6-7z"/>
<path transform="translate(693,730)" d="m0 0 1 3v9h6l-1 2h-2l-1 2v-2h-5v-9z"/>
<path transform="translate(1205,178)" d="m0 0 1 4-1 3-2 1-1 9-2-3 1-10z" fill="#E0C4BB"/>
<path transform="translate(1780,168)" d="m0 0h18l3 3-12-1-9-1z" fill="#FDEAE4"/>
<path transform="translate(1220,158)" d="m0 0 3 1-1 2h-3l-1 3-4 1h-2-3l8-6z" fill="#907A72"/>
<path transform="translate(1780,1250)" d="m0 0 4 2 9 9v2l-4-2-9-10z"/>
<path transform="translate(216,298)" d="m0 0 3 1 3 7v6h-2l-1-5h-1z" fill="#D0BCB5"/>
<path transform="translate(695,208)" d="m0 0h1l1 9 2 2 1 6-3 2-2-5z" fill="#776863"/>
<path transform="translate(1799,220)" d="m0 0 6 1 5 6 1 5-4-5-8-5z" fill="#FDD1C3"/>
<path transform="translate(696,202)" d="m0 0 2 4v15l-2-4-1-13z" fill="#EED7CF"/>
<path transform="translate(895,1251)" d="m0 0h2l3 6 4 5-1 5-2-4-5-7z"/>
<path transform="translate(1197,230)" d="m0 0 1 4-1 8-2 6h-1v-10z" fill="#C7A397"/>
<path transform="translate(1731,177)" d="m0 0 4 1-6 5-4 3h-2l2-4z" fill="#827875"/>
<path transform="translate(1197,190)" d="m0 0h2l1 7 4 1-1 3-2 2-3-5z" fill="#968079"/>
<path transform="translate(279,136)" d="m0 0 2 1-4 4-6 2-3-1 5-3h3v-2z" fill="#F5D9D0"/>
<path transform="translate(870,912)" d="m0 0 3 3 5 10-1 2-4-5-3-7z"/>
<path transform="translate(1197,247)" d="m0 0h1l3 9 4 8h-2v-2h-2l-4-7z" fill="#FDE6DF"/>
<path transform="translate(397,200)" d="m0 0h1l2 8h2l1 5-3-1v-2h-2l-3-9z" fill="#ECCDC3"/>
<path transform="translate(1203,185)" d="m0 0h1l1 15-4-3 1-11z" fill="#FDF4F1"/>
<path transform="translate(884,1252)" d="m0 0h2l7 11-1 4-6-10z"/>
<path transform="translate(1264,1240)" d="m0 0 4 5 5 7-1 3-7-10z"/>
<path transform="translate(1212,277)" d="m0 0h3l4 4 1 3-2 6-2-4-2-6z" fill="#4E403B"/>
<path transform="translate(1781,1262)" d="m0 0 5 5 5-1 2-1-1 4-1 1h-5l-5-5z"/>
<path transform="translate(1296,410)" d="m0 0 2 1-7 7-4 7-1-2 6-10z"/>
<path transform="translate(1861,250)" d="m0 0 1 3-2 5h-2l-2 7-1-4 3-8z" fill="#A2928C"/>
<path transform="translate(904,1250)" d="m0 0 5 5 4 6v2h-2l-7-11z"/>
<path transform="translate(423,237)" d="m0 0 3 4v6l-2 2-2-11z" fill="#FDD9CE"/>
<path transform="translate(1207,207)" d="m0 0h2l1 7-2 5h-1z" fill="#FDEBE5"/>
<path transform="translate(1222,157)" d="m0 0h4v2l2 1-7 3-3-3 3-1z" fill="#E9C6BA"/>
</svg>
